<svg width="56" height="58" viewBox="0 0 56 58" fill="none" xmlns="http://www.w3.org/2000/svg">
<ellipse cx="28" cy="29" rx="28" ry="29" fill="white"/>
<path d="M34.3588 16.0473C34.3588 17.5473 32.3588 18.0473 31.3588 18.0473C28.4563 18.0473 26.2376 18.1444 26.2268 20.8563L26.2376 23.5122L23.9041 23.5221C23.0764 23.5257 22.41 24.1978 22.4177 25.021L22.424 26.5532C20.7579 27.1899 19.1946 28.1828 17.8572 29.5314C12.8191 34.6118 12.8526 42.8097 17.932 47.8468C23.0114 52.8839 31.2049 52.8532 36.243 47.7728C41.281 42.6925 41.2476 34.4946 36.1682 29.4575C34.8199 28.1204 33.2485 27.1409 31.5773 26.5184L31.571 24.9863C31.5676 24.1586 30.8957 23.4922 30.0724 23.5002L27.739 23.5101L27.7278 20.7769C27.7278 19.0473 28.8588 19.0473 31.8588 19.0473C34.8588 19.0473 35.8588 17.0473 35.8601 16.0452L34.3588 16.0473ZM33.2144 36.5951C31.7968 34.0475 30.8299 33.0154 29.3471 32.4667C28.8332 32.2766 28.3803 31.6637 28.7662 31.2746C29.1521 30.8855 29.6007 30.9863 30.1751 31.2686C32.8452 32.581 35.7293 36.177 35.1154 39.6588C34.7295 40.0479 34.1582 39.9662 33.798 39.8911C33.4379 39.816 34.1447 38.2672 33.2144 36.5951Z" fill="black"/>
<path d="M39.9279 12.2824C40.2149 11.9884 40.2092 11.5129 39.9152 11.2259C39.6211 10.9388 39.1457 10.9447 38.8586 11.2388L36.3066 13.3127C36.0195 13.6068 36.0252 14.0822 36.3193 14.3692C36.6133 14.6563 37.0888 14.6505 37.3758 14.3564L39.9279 12.2824Z" fill="black"/>
<path d="M33.4771 9.11472L33.4325 12.1771C33.433 12.5865 33.7716 12.917 34.1899 12.9163C34.6037 12.9113 34.9343 12.5726 34.9293 12.1588L34.9739 9.09645C34.969 8.68261 34.6304 8.35211 34.2165 8.35716C33.8027 8.36222 33.4721 8.70088 33.4771 9.11472Z" fill="black"/>
<path d="M42.3134 16.9427C42.3085 16.5288 41.9699 16.1983 41.556 16.2034L38.0516 16.172C37.6378 16.1771 37.3073 16.5157 37.3122 16.9296C37.3172 17.3434 37.6558 17.6739 38.0696 17.6689L41.574 17.7002C41.9878 17.6952 42.3184 17.3565 42.3134 16.9427Z" fill="black"/>
</svg>
