<svg width="20" height="20" viewBox="0 0 20 20" fill="none" xmlns="http://www.w3.org/2000/svg">
<mask id="path-1-inside-1_8_14" fill="white">
<rect x="11" y="3.5" width="6" height="6" rx="1"/>
</mask>
<rect x="11" y="3.5" width="6" height="6" rx="1" stroke="#347FF2" stroke-width="2.6" mask="url(#path-1-inside-1_8_14)"/>
<mask id="path-2-inside-2_8_14" fill="white">
<rect x="11" y="11" width="6" height="6" rx="1"/>
</mask>
<rect x="11" y="11" width="6" height="6" rx="1" stroke="#347FF2" stroke-width="2.6" mask="url(#path-2-inside-2_8_14)"/>
<mask id="path-3-inside-3_8_14" fill="white">
<rect x="3" y="3.5" width="6" height="6" rx="1"/>
</mask>
<rect x="3" y="3.5" width="6" height="6" rx="1" stroke="#347FF2" stroke-width="2.6" mask="url(#path-3-inside-3_8_14)"/>
<mask id="path-4-inside-4_8_14" fill="white">
<rect x="3" y="11" width="6" height="6" rx="1"/>
</mask>
<rect x="3" y="11" width="6" height="6" rx="1" stroke="#347FF2" stroke-width="2.6" mask="url(#path-4-inside-4_8_14)"/>
<path fill-rule="evenodd" clip-rule="evenodd" d="M8 0H4C1.79086 0 0 1.79086 0 4V8H1.5V4C1.5 2.61929 2.61929 1.5 4 1.5H8V0ZM12 1.5V0H16C18.2091 0 20 1.79086 20 4V8H18.5V4C18.5 2.61929 17.3807 1.5 16 1.5H12ZM12 18.5H16C17.3807 18.5 18.5 17.3807 18.5 16V12H20V16C20 18.2091 18.2091 20 16 20H12V18.5ZM1.5 12V16C1.5 17.3807 2.61929 18.5 4 18.5H8V20H4C1.79086 20 0 18.2091 0 16V12H1.5Z" fill="#347FF2"/>
</svg>
