<svg width="58" height="60" viewBox="0 0 58 60" fill="none" xmlns="http://www.w3.org/2000/svg">
<ellipse cx="29" cy="30" rx="28" ry="29" fill="white"/>
<path fill-rule="evenodd" clip-rule="evenodd" d="M24.4476 18.4643C23.912 17.9323 23.0467 17.9351 22.5146 18.4707L13.4316 27.6135C12.8996 28.1491 12.9024 29.0144 13.438 29.5465L22.5807 38.6295C23.1163 39.1615 23.9817 39.1587 24.5138 38.6231C25.0458 38.0875 25.043 37.2222 24.5074 36.6901L16.3345 28.5705L24.454 20.3975C24.986 19.8619 24.9832 18.9964 24.4476 18.4643Z" fill="#050505"/>
<path d="M33.4197 27.0994C35.2775 27.0933 38.0335 27.6823 40.3712 29.5161C44.5 33.0626 43.9844 37.2654 44.0001 42.0626C44.0034 43.0626 41.005 43.0626 41.0001 41.5627C40.9878 37.8102 41 34.0626 38.6718 32.1238C36.9393 30.7647 34.8202 30.301 33.4302 30.3055L17.4721 30.3579L16.0053 28.7596L17.4615 27.1518L33.4197 27.0994Z" fill="#0A0A0A"/>
</svg>
