<svg width="18" height="22" viewBox="0 0 18 22" fill="none" xmlns="http://www.w3.org/2000/svg">
<path fill-rule="evenodd" clip-rule="evenodd" d="M7 6H2C0.895431 6 0 6.89543 0 8V20C0 21.1046 0.89543 22 2 22H16C17.1046 22 18 21.1046 18 20V8C18 6.89543 17.1046 6 16 6H12V7.5H16C16.2761 7.5 16.5 7.72386 16.5 8V20C16.5 20.2761 16.2761 20.5 16 20.5H2C1.72386 20.5 1.5 20.2761 1.5 20V8C1.5 7.72386 1.72386 7.5 2 7.5H7V6Z" fill="#347FF2"/>
<path fill-rule="evenodd" clip-rule="evenodd" d="M8.61591 0.148929C8.82804 -0.0496429 9.17196 -0.0496429 9.38409 0.148929L12.8409 3.38484C13.053 3.58341 13.053 3.90536 12.8409 4.10393C12.6288 4.3025 12.2849 4.3025 12.0727 4.10393L9.54319 1.73604V14H8.45681V1.73604L5.92728 4.10393C5.71515 4.3025 5.37122 4.3025 5.1591 4.10393C4.94697 3.90536 4.94697 3.58341 5.1591 3.38484L8.61591 0.148929Z" fill="#347FF2"/>
</svg>
