<svg width="31" height="18" viewBox="0 0 31 18" fill="none" xmlns="http://www.w3.org/2000/svg">
<path fill-rule="evenodd" clip-rule="evenodd" d="M2 17.5H9.35126C10.0626 17.5 10.7204 17.1222 11.0788 16.5077L13.4212 12.4923C13.7796 11.8778 14.4374 11.5 15.1487 11.5H15.8513C16.5626 11.5 17.2204 11.8778 17.5788 12.4923L19.9212 16.5077C20.2796 17.1222 20.9374 17.5 21.6487 17.5H28.5C29.6046 17.5 30.5 16.6046 30.5 15.5V2C30.5 0.895431 29.6046 0 28.5 0H2C0.89543 0 0 0.89543 0 2V15.5C0 16.6046 0.89543 17.5 2 17.5ZM11 7.5C11 9.70914 9.433 11.5 7.5 11.5C5.567 11.5 4 9.70914 4 7.5C4 5.29086 5.567 3.5 7.5 3.5C9.433 3.5 11 5.29086 11 7.5ZM23.5 11.5C25.433 11.5 27 9.70914 27 7.5C27 5.29086 25.433 3.5 23.5 3.5C21.567 3.5 20 5.29086 20 7.5C20 9.70914 21.567 11.5 23.5 11.5Z" fill="white"/>
</svg>
